<svg width="480" height="480" viewBox="0 0 480 480" fill="none" xmlns="http://www.w3.org/2000/svg">
<g clip-path="url(#clip0)">
<path d="M384.16 247.291C378.319 247.291 372.489 247.872 366.765 249.03C362.449 227.487 348.494 209.11 328.9 199.163C309.31 189.216 286.239 188.799 266.298 198.028C248.252 148.321 193.328 122.656 143.621 140.702C93.9132 158.747 68.2485 213.676 86.2942 263.379C42.7515 264.755 8.35646 300.796 9.00763 344.354C9.6627 387.916 45.1261 422.904 88.6922 422.974H384.16C432.67 422.974 472.002 383.647 472.002 335.132C472.002 286.618 432.67 247.291 384.16 247.291Z" fill="#A6D1FF"/>
</g>
<defs>
<clipPath id="clip0">
<rect width="463" height="463" fill="white" transform="translate(9 17)"/>
</clipPath>
</defs>
</svg>
