<svg width="480" height="480" viewBox="0 0 480 480" fill="none" xmlns="http://www.w3.org/2000/svg">
<g clip-path="url(#clip0)">
<path d="M384.16 167.363C378.319 167.363 372.49 167.944 366.766 169.102C362.449 147.559 348.494 129.182 328.9 119.235C309.311 109.288 286.239 108.871 266.298 118.1C248.253 68.3929 193.328 42.7282 143.621 60.7738C93.9137 78.8195 68.249 133.748 86.2946 183.451C42.752 184.828 8.35695 220.868 9.00812 264.426C9.66319 307.989 45.1266 342.976 88.6927 343.046H384.16C432.671 343.046 472.002 303.719 472.002 255.205C472.002 206.691 432.671 167.363 384.16 167.363Z" fill="#449EFF"/>
<path d="M384.16 247.219C378.319 247.219 372.49 247.8 366.766 248.959C362.449 227.415 348.494 209.038 328.9 199.091C309.311 189.144 286.239 188.727 266.298 197.957C248.253 148.249 193.328 122.585 143.621 140.63C93.9137 158.676 68.249 213.604 86.2946 263.308C42.752 264.684 8.35695 300.725 9.00812 344.283C9.66319 387.845 45.1266 422.833 88.6927 422.903H384.16C432.671 422.903 472.002 383.575 472.002 335.061C472.002 286.547 432.671 247.219 384.16 247.219Z" fill="#A6D1FF"/>
</g>
<defs>
<clipPath id="clip0">
<rect width="463" height="463" fill="white" transform="translate(9 17)"/>
</clipPath>
</defs>
</svg>
