<svg width="480" height="480" viewBox="0 0 480 480" fill="none" xmlns="http://www.w3.org/2000/svg">
<path d="M367.062 423.026C397.222 423.748 425.406 408.073 440.703 382.068C455.995 356.059 455.995 323.81 440.703 297.801C425.406 271.796 397.222 256.12 367.062 256.843C361.422 256.847 355.795 257.397 350.265 258.491C343.341 226.476 314.899 203.716 282.146 203.97C272.133 203.974 262.233 206.114 253.115 210.249C237.053 168.971 194.087 144.766 150.462 152.421C106.836 160.075 74.6768 197.456 73.6263 241.737C73.6459 252.086 75.4813 262.349 79.0468 272.065C51.9093 272.225 26.9471 286.936 13.6615 310.602C0.379786 334.268 0.817172 363.241 14.8174 386.492C28.8138 409.74 54.2134 423.69 81.3431 423.026" fill="#A6D1FF"/>
<path d="M336.255 427.796H256.4C251.987 427.796 248.415 424.221 248.415 419.811C248.415 415.401 251.987 411.825 256.4 411.825H336.255C340.665 411.825 344.241 415.401 344.241 419.811C344.241 424.221 340.665 427.796 336.255 427.796Z" fill="#92AEBA"/>
<path d="M176.546 427.796H112.662C108.248 427.796 104.677 424.221 104.677 419.811C104.677 415.401 108.248 411.825 112.662 411.825H176.546C180.956 411.825 184.531 415.401 184.531 419.811C184.531 424.221 180.956 427.796 176.546 427.796Z" fill="#92AEBA"/>
<path d="M224.458 427.796H208.487C204.074 427.796 200.502 424.221 200.502 419.811C200.502 415.401 204.074 411.825 208.487 411.825H224.458C228.868 411.825 232.444 415.401 232.444 419.811C232.444 424.221 228.868 427.796 224.458 427.796Z" fill="#92AEBA"/>
<path d="M240.429 475.709H144.604C140.19 475.709 136.618 472.134 136.618 467.724C136.618 463.314 140.19 459.738 144.604 459.738H240.429C244.839 459.738 248.415 463.314 248.415 467.724C248.415 472.134 244.839 475.709 240.429 475.709Z" fill="#92AEBA"/>
<path d="M368.197 475.709H336.255C331.841 475.709 328.27 472.134 328.27 467.724C328.27 463.314 331.841 459.738 336.255 459.738H368.197C372.607 459.738 376.182 463.314 376.182 467.724C376.182 472.134 372.607 475.709 368.197 475.709Z" fill="#92AEBA"/>
<path d="M304.313 475.709H272.371C267.957 475.709 264.386 472.134 264.386 467.724C264.386 463.314 267.957 459.738 272.371 459.738H304.313C308.723 459.738 312.299 463.314 312.299 467.724C312.299 472.134 308.723 475.709 304.313 475.709Z" fill="#92AEBA"/>
<path d="M336.255 331.971H256.4C251.987 331.971 248.415 328.395 248.415 323.985C248.415 319.576 251.987 316 256.4 316H336.255C340.665 316 344.241 319.576 344.241 323.985C344.241 328.395 340.665 331.971 336.255 331.971Z" fill="#92AEBA"/>
<path d="M176.546 331.971H112.662C108.248 331.971 104.677 328.395 104.677 323.985C104.677 319.576 108.248 316 112.662 316H176.546C180.956 316 184.531 319.576 184.531 323.985C184.531 328.395 180.956 331.971 176.546 331.971Z" fill="#92AEBA"/>
<path d="M224.458 331.971H208.487C204.074 331.971 200.502 328.395 200.502 323.985C200.502 319.576 204.074 316 208.487 316H224.458C228.868 316 232.444 319.576 232.444 323.985C232.444 328.395 228.868 331.971 224.458 331.971Z" fill="#92AEBA"/>
<path d="M240.429 379.884H144.604C140.19 379.884 136.618 376.308 136.618 371.899C136.618 367.489 140.19 363.913 144.604 363.913H240.429C244.839 363.913 248.415 367.489 248.415 371.899C248.415 376.308 244.839 379.884 240.429 379.884Z" fill="#92AEBA"/>
<path d="M368.197 379.884H336.255C331.841 379.884 328.27 376.308 328.27 371.899C328.27 367.489 331.841 363.913 336.255 363.913H368.197C372.607 363.913 376.182 367.489 376.182 371.899C376.182 376.308 372.607 379.884 368.197 379.884Z" fill="#92AEBA"/>
<path d="M304.313 379.884H272.371C267.957 379.884 264.386 376.308 264.386 371.899C264.386 367.489 267.957 363.913 272.371 363.913H304.313C308.723 363.913 312.299 367.489 312.299 371.899C312.299 376.308 308.723 379.884 304.313 379.884Z" fill="#92AEBA"/>
</svg>
