<svg width="480" height="480" viewBox="0 0 480 480" fill="none" xmlns="http://www.w3.org/2000/svg">
<path d="M375.527 262.606C318.59 261.95 272.948 215.288 273.55 158.352C273.866 114.494 300.758 75.2176 341.535 59.0688C327.3 55.2259 312.568 53.5544 297.833 54.1012C219.194 54.9799 156.149 119.431 157.009 198.07C156.149 276.709 219.194 341.159 297.833 342.038C357.352 342.311 410.281 304.234 428.949 247.715C413.07 257.994 394.433 263.192 375.527 262.606Z" fill="#FFD600"/>
<path d="M367.062 423.026C397.222 423.748 425.406 408.073 440.703 382.068C455.995 356.059 455.995 323.81 440.703 297.801C425.406 271.796 397.222 256.12 367.062 256.843C361.422 256.847 355.795 257.397 350.265 258.491C343.341 226.476 314.899 203.716 282.146 203.97C272.133 203.974 262.233 206.114 253.115 210.249C237.053 168.971 194.087 144.766 150.462 152.421C106.836 160.075 74.6768 197.456 73.6263 241.737C73.6459 252.086 75.4813 262.349 79.0468 272.065C51.9093 272.225 26.9471 286.936 13.6615 310.602C0.379786 334.268 0.817172 363.241 14.8174 386.492C28.8138 409.74 54.2134 423.69 81.3431 423.026" fill="#A6D1FF"/>
<path d="M248.056 272H184.073L152.081 367.975H224.062L201.478 479.946L296.044 335.983H232.06L248.056 272Z" fill="#F2994A"/>
</svg>
