<svg width="480" height="480" viewBox="0 0 480 480" fill="none" xmlns="http://www.w3.org/2000/svg">
<path d="M381.527 263.606C324.59 262.95 278.948 216.288 279.55 159.352C279.866 115.494 306.758 76.2176 347.535 60.0688C333.3 56.2259 318.568 54.5544 303.833 55.1012C225.194 55.9799 162.149 120.431 163.009 199.07C162.149 277.709 225.194 342.159 303.833 343.038C363.352 343.311 416.281 305.234 434.949 248.715C419.07 258.994 400.433 264.192 381.527 263.606Z" fill="#FFD600"/>
<path d="M367.062 423.026C397.222 423.748 425.406 408.073 440.703 382.068C455.995 356.059 455.995 323.81 440.703 297.801C425.406 271.796 397.222 256.12 367.062 256.843C361.422 256.847 355.795 257.397 350.265 258.491C343.341 226.476 314.899 203.716 282.146 203.97C272.133 203.974 262.233 206.114 253.115 210.249C237.053 168.971 194.087 144.766 150.462 152.421C106.836 160.075 74.6768 197.456 73.6263 241.737C73.6459 252.086 75.4813 262.349 79.0468 272.065C51.9093 272.225 26.9471 286.936 13.6615 310.602C0.379786 334.268 0.817172 363.241 14.8174 386.492C28.8138 409.74 54.2134 423.69 81.3431 423.026" fill="#A6D1FF"/>
<path d="M332.036 427.958C332.036 445.625 317.716 459.949 300.044 459.949C282.377 459.949 268.053 445.625 268.053 427.958C268.053 403.964 300.044 347.979 300.044 347.979C300.044 347.979 332.036 403.964 332.036 427.958Z" fill="#449EFF"/>
<path d="M252.057 347.979C252.057 365.646 237.736 379.971 220.065 379.971C202.398 379.971 188.073 365.646 188.073 347.979C188.073 323.985 220.065 268 220.065 268C220.065 268 252.057 323.985 252.057 347.979Z" fill="#449EFF"/>
<path d="M180.075 443.954C180.075 461.621 165.755 475.945 148.083 475.945C130.416 475.945 116.092 461.621 116.092 443.954C116.092 419.96 148.083 363.975 148.083 363.975C148.083 363.975 180.075 419.96 180.075 443.954Z" fill="#449EFF"/>
</svg>
