<svg width="480" height="480" viewBox="0 0 480 480" fill="none" xmlns="http://www.w3.org/2000/svg">
<g clip-path="url(#clip0)">
<path d="M379.836 246.843C373.984 246.843 368.144 247.429 362.41 248.585C358.086 227.003 344.105 208.593 324.476 198.628C304.851 188.663 281.738 188.245 261.762 197.491C243.683 147.694 188.66 121.983 138.863 140.062C89.0662 158.144 63.3553 213.167 81.4334 262.964C37.8123 264.343 3.3553 300.444 4.00765 344.085C4.6639 387.722 40.1912 422.773 83.8358 422.843H379.836C428.433 422.843 467.836 383.444 467.836 334.843C467.836 286.241 428.433 246.843 379.836 246.843Z" fill="#A6D1FF"/>
</g>
<defs>
<clipPath id="clip0">
<rect width="472" height="472" fill="white" transform="translate(4 4)"/>
</clipPath>
</defs>
</svg>
