<svg width="480" height="480" viewBox="0 0 480 480" fill="none" xmlns="http://www.w3.org/2000/svg">
<path d="M418.527 263.606C361.59 262.95 315.948 216.288 316.55 159.352C316.866 115.494 343.758 76.2176 384.535 60.0688C370.299 56.2259 355.568 54.5544 340.833 55.1012C262.194 55.9799 199.149 120.431 200.009 199.07C199.149 277.709 262.194 342.159 340.833 343.038C400.352 343.311 453.281 305.234 471.949 248.715C456.07 258.994 437.433 264.192 418.527 263.606Z" fill="#FFD600"/>
<path d="M383.855 246.818C378.005 246.818 372.166 247.404 366.433 248.56C362.11 226.983 348.132 208.577 328.512 198.614C308.887 188.651 285.779 188.233 265.807 197.477C247.732 147.691 192.721 121.986 142.935 140.06C93.1492 158.138 67.4439 213.15 85.518 262.936C41.9065 264.314 7.45701 300.408 8.10921 344.039C8.76531 387.666 44.2849 422.709 87.9198 422.78H383.855C432.442 422.78 471.836 383.39 471.836 334.799C471.836 286.208 432.442 246.818 383.855 246.818Z" fill="#A6D1FF"/>
</svg>
