<svg width="480" height="480" viewBox="0 0 480 480" fill="none" xmlns="http://www.w3.org/2000/svg">
<path d="M367.062 423.026C397.222 423.748 425.406 408.073 440.703 382.068C455.995 356.059 455.995 323.81 440.703 297.801C425.406 271.796 397.222 256.12 367.062 256.843C361.422 256.847 355.795 257.397 350.265 258.491C343.341 226.476 314.899 203.716 282.146 203.97C272.133 203.974 262.233 206.114 253.115 210.249C237.053 168.971 194.087 144.766 150.462 152.421C106.836 160.075 74.6768 197.456 73.6263 241.737C73.6459 252.086 75.4813 262.349 79.0468 272.065C51.9093 272.225 26.9471 286.936 13.6615 310.602C0.379786 334.268 0.817172 363.241 14.8174 386.492C28.8138 409.74 54.2134 423.69 81.3431 423.026" fill="#A6D1FF"/>
<path d="M195.84 419.724H175.186L193.501 401.414C196.526 398.279 196.483 393.3 193.403 390.219C190.323 387.139 185.34 387.096 182.209 390.122L163.898 408.432V387.782C163.898 383.372 160.323 379.797 155.913 379.797C151.499 379.797 147.927 383.372 147.927 387.782V408.432L129.617 390.122C126.482 387.096 121.503 387.139 118.422 390.219C115.342 393.3 115.295 398.279 118.325 401.414L136.635 419.724H115.985C111.572 419.724 108 423.3 108 427.71C108 432.12 111.572 435.695 115.985 435.695H136.635L118.325 454.006C116.247 456.01 115.416 458.981 116.145 461.773C116.878 464.564 119.058 466.744 121.85 467.473C124.642 468.206 127.609 467.372 129.617 465.297L147.927 446.987V467.637C147.927 472.047 151.499 475.622 155.913 475.622C160.323 475.622 163.898 472.047 163.898 467.637V446.987L182.209 465.297C185.34 468.323 190.323 468.28 193.403 465.2C196.483 462.12 196.526 457.14 193.501 454.006L175.186 435.695H195.84C200.25 435.695 203.826 432.12 203.826 427.71C203.826 423.3 200.25 419.724 195.84 419.724V419.724Z" fill="#B7F9FE"/>
<path d="M339.578 403.752H318.925L337.239 385.442C340.265 382.307 340.222 377.328 337.141 374.248C334.061 371.167 329.078 371.124 325.947 374.15L307.636 392.461V371.811C307.636 367.401 304.061 363.825 299.651 363.825C295.237 363.825 291.666 367.401 291.666 371.811V392.461L273.355 374.15C270.22 371.124 265.241 371.167 262.161 374.248C259.08 377.328 259.034 382.307 262.063 385.442L280.374 403.752H259.724C255.31 403.752 251.738 407.328 251.738 411.738C251.738 416.148 255.31 419.723 259.724 419.723H280.374L262.063 438.034C259.985 440.038 259.154 443.009 259.884 445.801C260.617 448.593 262.796 450.772 265.588 451.501C268.38 452.235 271.347 451.4 273.355 449.326L291.666 431.015V451.665C291.666 456.075 295.237 459.651 299.651 459.651C304.061 459.651 307.636 456.075 307.636 451.665V431.015L325.947 449.326C329.078 452.352 334.061 452.309 337.141 449.228C340.222 446.148 340.265 441.169 337.239 438.034L318.925 419.723H339.578C343.988 419.723 347.564 416.148 347.564 411.738C347.564 407.328 343.988 403.752 339.578 403.752V403.752Z" fill="#B7F9FE"/>
<path d="M249.399 342.209L231.085 323.898H251.738C256.148 323.898 259.724 320.323 259.724 315.913C259.724 311.503 256.148 307.927 251.738 307.927H231.085L249.399 289.617C252.425 286.482 252.382 281.503 249.302 278.422C246.221 275.342 241.238 275.299 238.107 278.325L219.797 296.635V275.985C219.797 271.576 216.221 268 211.811 268C207.397 268 203.826 271.576 203.826 275.985V296.635L185.515 278.325C182.38 275.299 177.401 275.342 174.321 278.422C171.241 281.503 171.194 286.482 174.223 289.617L192.534 307.927H171.884C167.47 307.927 163.898 311.503 163.898 315.913C163.898 320.323 167.47 323.898 171.884 323.898H192.534L174.223 342.209C172.145 344.213 171.315 347.184 172.044 349.976C172.777 352.768 174.956 354.947 177.748 355.676C180.54 356.409 183.507 355.575 185.515 353.501L203.826 335.19V355.84C203.826 360.25 207.397 363.826 211.811 363.826C216.221 363.826 219.797 360.25 219.797 355.84V335.19L238.107 353.501C241.238 356.526 246.221 356.483 249.302 353.403C252.382 350.323 252.425 345.344 249.399 342.209Z" fill="#B7F9FE"/>
</svg>
