<svg width="480" height="480" viewBox="0 0 480 480" fill="none" xmlns="http://www.w3.org/2000/svg">
<g clip-path="url(#clip0)">
<path d="M404.1 213C404.1 279.273 350.373 333 284.1 333C217.822 333 164.1 279.273 164.1 213C164.1 146.727 217.822 93 284.1 93C350.373 93 404.1 146.727 404.1 213Z" fill="#FFD600"/>
<path d="M468.1 221H436.1C431.678 221 428.1 217.418 428.1 213C428.1 208.582 431.678 205 436.1 205H468.1C472.518 205 476.1 208.582 476.1 213C476.1 217.418 472.518 221 468.1 221Z" fill="#FFD600"/>
<path d="M172.1 109C169.975 109 167.944 108.156 166.444 106.656L134.444 74.6565C132.362 72.6487 131.53 69.6721 132.26 66.8752C132.995 64.0783 135.178 61.8947 137.975 61.1643C140.772 60.4299 143.745 61.2658 145.756 63.344L177.756 95.344C180.042 97.633 180.725 101.074 179.487 104.063C178.249 107.051 175.334 109 172.1 109Z" fill="#FFD600"/>
<path d="M396.1 109C392.861 109 389.947 107.051 388.709 104.063C387.471 101.074 388.154 97.633 390.443 95.344L422.443 63.344C424.451 61.2658 427.424 60.4299 430.221 61.1643C433.018 61.8947 435.205 64.0783 435.936 66.8752C436.666 69.6721 435.834 72.6487 433.756 74.6565L401.756 106.656C400.256 108.156 398.221 109 396.1 109Z" fill="#FFD600"/>
<path d="M367.062 423.026C397.222 423.748 425.406 408.073 440.703 382.068C455.995 356.059 455.995 323.81 440.703 297.801C425.406 271.796 397.222 256.12 367.062 256.843C361.422 256.847 355.795 257.397 350.265 258.491C343.341 226.476 314.899 203.716 282.146 203.97C272.133 203.974 262.233 206.114 253.115 210.249C237.053 168.971 194.087 144.766 150.462 152.421C106.836 160.075 74.6768 197.456 73.6263 241.737C73.6459 252.086 75.4813 262.349 79.0468 272.065C51.9093 272.225 26.9471 286.936 13.6615 310.602C0.379786 334.268 0.817172 363.241 14.8174 386.492C28.8138 409.74 54.2134 423.69 81.3431 423.026" fill="#A6D1FF"/>
<path d="M332.036 427.958C332.036 445.625 317.716 459.949 300.044 459.949C282.377 459.949 268.053 445.625 268.053 427.958C268.053 403.964 300.044 347.979 300.044 347.979C300.044 347.979 332.036 403.964 332.036 427.958Z" fill="#449EFF"/>
<path d="M252.057 347.979C252.057 365.646 237.736 379.971 220.065 379.971C202.398 379.971 188.073 365.646 188.073 347.979C188.073 323.985 220.065 268 220.065 268C220.065 268 252.057 323.985 252.057 347.979Z" fill="#449EFF"/>
<path d="M180.075 443.954C180.075 461.621 165.755 475.945 148.083 475.945C130.416 475.945 116.092 461.621 116.092 443.954C116.092 419.96 148.083 363.975 148.083 363.975C148.083 363.975 180.075 419.96 180.075 443.954Z" fill="#449EFF"/>
<path d="M278.355 66.3654C276.853 64.8628 276.013 62.8299 276.013 60.7085L276.013 15.4537C275.961 12.5617 277.477 9.86866 279.971 8.40749C282.468 6.94908 285.556 6.94908 288.051 8.41025C290.548 9.86866 292.058 12.5617 292.011 15.4537L292.011 60.7085C292.009 63.943 290.059 66.8598 287.07 68.0972C284.081 69.3347 280.643 68.6524 278.355 66.3654Z" fill="#FFD600"/>
</g>
<defs>
<clipPath id="clip0">
<rect width="472" height="472" fill="white" transform="translate(4 4)"/>
</clipPath>
</defs>
</svg>
