<svg width="480" height="480" viewBox="0 0 480 480" fill="none" xmlns="http://www.w3.org/2000/svg">
<path d="M400.1 209C400.1 275.273 346.373 329 280.1 329C213.822 329 160.1 275.273 160.1 209C160.1 142.727 213.822 89 280.1 89C346.373 89 400.1 142.727 400.1 209Z" fill="#FFD600"/>
<path d="M464.1 217H432.1C427.678 217 424.1 213.418 424.1 209C424.1 204.582 427.678 201 432.1 201H464.1C468.518 201 472.1 204.582 472.1 209C472.1 213.418 468.518 217 464.1 217Z" fill="#FFD600"/>
<path d="M168.1 105C165.975 105 163.944 104.156 162.444 102.656L130.444 70.6565C128.362 68.6487 127.53 65.6721 128.26 62.8752C128.995 60.0783 131.178 57.8947 133.975 57.1643C136.772 56.4299 139.745 57.2658 141.756 59.344L173.756 91.344C176.042 93.633 176.725 97.0744 175.487 100.063C174.249 103.051 171.334 105 168.1 105Z" fill="#FFD600"/>
<path d="M392.1 105C388.861 105 385.947 103.051 384.709 100.063C383.471 97.0744 384.154 93.633 386.443 91.344L418.443 59.344C420.451 57.2658 423.424 56.4299 426.221 57.1643C429.018 57.8947 431.205 60.0783 431.936 62.8752C432.666 65.6721 431.834 68.6487 429.756 70.6565L397.756 102.656C396.256 104.156 394.221 105 392.1 105Z" fill="#FFD600"/>
<path d="M274.355 62.3654C272.853 60.8628 272.013 58.8299 272.013 56.7085L272.013 11.4537C271.961 8.56174 273.477 5.86866 275.971 4.40749C278.468 2.94908 281.556 2.94908 284.051 4.41025C286.548 5.86866 288.058 8.56174 288.011 11.4537L288.011 56.7085C288.009 59.943 286.059 62.8598 283.07 64.0972C280.081 65.3347 276.643 64.6524 274.355 62.3654Z" fill="#FFD600"/>
<path d="M367.062 423.026C397.222 423.748 425.406 408.073 440.703 382.068C455.995 356.059 455.995 323.81 440.703 297.801C425.406 271.796 397.222 256.12 367.062 256.843C361.422 256.847 355.795 257.397 350.265 258.491C343.341 226.476 314.899 203.716 282.146 203.97C272.133 203.974 262.233 206.114 253.115 210.249C237.053 168.971 194.087 144.766 150.462 152.421C106.836 160.075 74.6768 197.456 73.6263 241.737C73.6459 252.086 75.4813 262.349 79.0468 272.065C51.9093 272.225 26.9471 286.936 13.6615 310.602C0.379786 334.268 0.817172 363.241 14.8174 386.492C28.8138 409.74 54.2134 423.69 81.3431 423.026" fill="#A6D1FF"/>
<path d="M248.056 272H184.073L152.081 367.975H224.062L201.478 479.946L296.044 335.983H232.06L248.056 272Z" fill="#F2994A"/>
</svg>
