<svg width="480" height="480" viewBox="0 0 480 480" fill="none" xmlns="http://www.w3.org/2000/svg">
<path d="M376 240C376 315.109 315.109 376 240 376C164.891 376 104 315.109 104 240C104 164.891 164.891 104 240 104C315.109 104 376 164.891 376 240Z" fill="#FFD600"/>
<path d="M240 480C235.582 480 232 476.418 232 472V408C232 403.582 235.582 400 240 400C244.418 400 248 403.582 248 408V472C248 476.418 244.418 480 240 480Z" fill="#FFD600"/>
<path d="M240 80C235.582 80 232 76.418 232 72V8C232 3.58203 235.582 0 240 0C244.418 0 248 3.58203 248 8V72C248 76.418 244.418 80 240 80Z" fill="#FFD600"/>
<path d="M120 120L72 72L120 120Z" fill="#FFD600"/>
<path d="M120 128C117.879 128 115.844 127.157 114.344 125.657L66.3436 77.6566C63.3123 74.5159 63.3553 69.5276 66.4412 66.4417C69.5272 63.3558 74.5154 63.3128 77.6561 66.3441L125.656 114.344C127.941 116.633 128.629 120.075 127.39 123.063C126.152 126.051 123.234 128 120 128Z" fill="#FFD600"/>
<path d="M408 408L360 360L408 408Z" fill="#FFD600"/>
<path d="M408 416C405.879 416 403.844 415.157 402.344 413.657L354.344 365.657C351.312 362.516 351.355 357.528 354.441 354.442C357.527 351.356 362.515 351.313 365.656 354.344L413.656 402.344C415.941 404.633 416.629 408.075 415.39 411.063C414.152 414.051 411.234 416 408 416Z" fill="#FFD600"/>
<path d="M360 120L408 72L360 120Z" fill="#FFD600"/>
<path d="M360 128C356.766 128 353.848 126.051 352.61 123.063C351.371 120.075 352.059 116.633 354.344 114.344L402.344 66.3441C405.485 63.3128 410.473 63.3558 413.559 66.4417C416.645 69.5276 416.688 74.5159 413.656 77.6566L365.656 125.657C364.156 127.157 362.121 128 360 128Z" fill="#FFD600"/>
<path d="M472 248H408C403.582 248 400 244.418 400 240C400 235.582 403.582 232 408 232H472C476.418 232 480 235.582 480 240C480 244.418 476.418 248 472 248Z" fill="#FFD600"/>
<path d="M72 248H8C3.58203 248 0 244.418 0 240C0 235.582 3.58203 232 8 232H72C76.418 232 80 235.582 80 240C80 244.418 76.418 248 72 248Z" fill="#FFD600"/>
<path d="M72 408L120 360L72 408Z" fill="#FFD600"/>
<path d="M72.0001 416C68.7658 416 65.8478 414.051 64.6095 411.063C63.3712 408.075 64.0587 404.633 66.3439 402.344L114.344 354.344C117.485 351.313 122.473 351.356 125.559 354.442C128.645 357.528 128.688 362.516 125.656 365.657L77.6564 413.657C76.1564 415.157 74.1212 416 72.0001 416Z" fill="#FFD600"/>
</svg>
